<svg width="247" height="143" viewBox="0 0 247 143" fill="none" xmlns="http://www.w3.org/2000/svg">
    <title>Minha Virada Cultural - Logo</title>
    <g filter="url(#filter0_n_17_253)">
        <g clip-path="url(#clip0_17_253)">
            <path
                d="M118.37 137.68C118.365 137.591 118.353 137.503 118.335 137.416C117.252 134.637 115.535 132.153 113.322 130.166C112.888 129.704 112.299 130.465 111.852 130.615C111.242 130.987 110.598 131.299 109.929 131.547C108.207 132.401 106.273 132.724 104.369 132.476C98.5328 131.775 95.9135 125.211 90.1751 124.621C90.4192 114.14 90.6622 103.659 90.9043 93.1789C90.9777 90.0317 91.0511 86.8845 91.1246 83.7374C91.1573 82.3286 91.1961 80.9228 91.2228 79.5171C91.2152 79.3634 91.1491 79.2186 91.0383 79.1125C90.9275 79.0065 90.7804 78.9474 90.6275 78.9476C88.7911 78.8817 86.9577 79.1575 85.1153 79.1635C83.4867 79.1671 81.8725 79.4718 80.3531 80.0626C80.1749 80.2528 80.0448 80.4833 79.9738 80.7348C79.9028 80.9862 79.8931 81.2512 79.9454 81.5073C79.868 83.2488 79.7697 85.0202 79.6209 86.7736C79.1983 92.4171 79.0989 98.0804 79.3233 103.735C79.2637 108.702 79.0554 113.662 79.2072 118.632C79.1715 122.759 79.362 126.868 78.9899 130.987C78.8173 132.363 78.6923 133.478 80.0674 134.266C80.5138 134.925 81.7847 134.697 82.5288 134.796C85.3649 134.986 88.1619 135.566 90.8418 136.52C97.0208 139.044 102.944 144.289 110.007 142.697C113.042 142.056 115.851 140.607 118.141 138.501C118.235 138.387 118.302 138.253 118.339 138.11C118.376 137.966 118.382 137.817 118.355 137.671"
                fill="#FAFAFA" />
            <path
                d="M145.086 87.8257C145.071 88.7638 145.384 89.9238 144.818 90.7181C143.773 91.3017 142.653 91.7392 141.491 92.0189C131.686 95.196 121.897 98.469 112.111 101.703C112.846 106.87 112.882 112.107 113.623 117.289C113.834 119.687 114.281 122.178 114.275 124.546C114.429 125.415 113.623 125.846 112.914 126.086C111.857 126.52 110.777 126.898 109.679 127.216C108.739 127.582 107.771 127.873 106.804 128.163C105.929 128.523 105.001 128.738 104.057 128.799C102.997 128.607 102.795 127.498 102.709 126.581C102.584 125.463 102.411 124.336 102.378 123.212C101.857 117.193 101.566 111.16 100.83 105.159C95.2884 106.595 95.1307 107.218 94.7408 100.99C94.5409 99.7377 94.4721 98.4678 94.5354 97.2012C94.5262 96.7541 94.6726 96.3177 94.9493 95.9679C95.226 95.6181 95.6156 95.3768 96.0504 95.2859C105.438 92.2466 114.903 89.3842 124.326 86.3929L141.904 80.8778C145.384 79.7209 144.839 85.7635 145.098 87.8376"
                fill="#FAFAFA" />
            <path
                d="M182.097 135.54C178.823 126.97 174.019 119.112 170.04 110.878C174.427 107.413 179.112 103.298 179.969 97.438C180.408 94.7338 179.999 91.9592 178.8 89.4997C177.601 87.0401 175.671 85.0177 173.278 83.7134C170.861 82.4233 168.165 81.7511 165.43 81.7561C161.129 81.8857 157.04 83.6657 154 86.7317C153.287 88.2343 152.984 89.9008 153.122 91.5603C152.976 94.5316 153.024 97.5093 153.265 100.474C153.265 104.449 153.563 108.384 153.732 112.356C153.75 119.39 154.03 126.41 154.328 133.433C154.315 134.355 154.373 135.277 154.5 136.19C155.435 137.5 157.384 136.754 158.733 136.715C160.34 136.73 161.941 136.529 163.495 136.115C164.212 135.732 164.054 134.736 164.028 134.05C163.65 129.869 163.965 125.634 163.962 121.443C166.087 126.029 168.406 130.513 170.546 135.099C171.272 136.436 172.751 140.144 173.984 140.725C175.049 140.651 176.076 140.294 176.96 139.691C177.899 139.291 178.801 138.81 179.657 138.252C180.118 137.923 181.984 137.266 181.91 136.64C182.025 136.488 182.103 136.311 182.137 136.122C182.171 135.934 182.159 135.741 182.103 135.558M168.278 98.8258C167.854 99.7498 167.172 100.529 166.315 101.069C165.458 101.609 164.464 101.885 163.453 101.865C163.12 98.9907 163.156 96.0652 163.013 93.1728C162.528 90.9039 165.096 90.8829 166.653 91.0448C167.296 91.4237 167.853 91.9338 168.288 92.5423C168.723 93.1508 169.027 93.8443 169.181 94.5782C169.334 95.3121 169.333 96.0703 169.178 96.8038C169.023 97.5374 168.718 98.2302 168.281 98.8378"
                fill="#FAFAFA" />
            <path
                d="M218.638 137.623C216.287 125.604 214.769 113.444 212.555 101.403C211.81 96.4458 210.367 91.6412 209.477 86.7166C209.157 84.5942 208.714 82.4925 208.15 80.4223C207.394 75.4917 202.494 78.4141 199.691 79.5891C196.249 80.9745 192.901 82.5835 189.666 84.4057C188.651 84.9812 187.374 85.3918 186.86 86.5398C186.494 88.1243 186.276 89.7399 186.211 91.3654C185.389 97.0333 184.937 102.755 184.425 108.471C183.773 115.182 182.603 121.848 182.071 128.577C182.085 130.022 180.993 133.289 183.261 133.34C185.58 133.78 187.961 133.678 190.3 133.939C191.025 134.042 191.762 134.013 192.476 133.852C193.354 133.16 193.214 131.586 193.488 130.555C194.396 125.235 195.274 119.909 195.937 114.55C197.81 114.849 199.649 115.329 201.5 115.748C203.387 124.219 204.715 132.833 206.45 141.333C206.792 144.307 210.043 142.469 211.769 142.005C213.037 141.564 214.364 141.235 215.638 140.806C216.496 140.699 217.314 140.38 218.019 139.877C218.912 139.508 218.781 138.402 218.641 137.617M197.563 105.246C197.435 105.268 197.31 105.3 197.188 105.342C197.604 101.23 198.08 97.1203 198.697 93.026C199.259 97.0753 199.506 101.173 199.979 105.231C199.174 105.172 198.368 105.177 197.563 105.246Z"
                fill="#FAFAFA" />
            <path
                d="M246.857 122.702C246.333 120.241 245.583 117.829 244.896 115.407C244.539 113.938 244.339 111.717 242.294 112.526C238.27 114.529 234.359 116.754 230.579 119.192C229.752 111.121 228.106 103.154 226.85 95.1361C226.189 90.2325 225.133 85.3978 224.255 80.5242C224.07 78.3482 223.546 76.2261 223.198 74.074C223.177 73.9181 223.129 73.5495 222.954 73.4745C222.814 72.995 222.442 72.5034 221.894 72.5753C220.503 72.7842 219.133 73.1203 217.802 73.5795C216.73 74.041 212.266 75.168 212.001 76.1302C213.192 85.9493 214.93 95.8195 216.302 105.657C217.855 115.449 219.097 125.28 220.487 135.084C220.835 139.032 225.183 136.151 227.163 135.084C228.517 134.335 229.924 133.684 231.282 132.941C235.449 130.753 239.732 128.823 243.783 126.398C244.764 125.936 245.691 125.366 246.548 124.698C247.268 124.333 246.947 123.368 246.866 122.729"
                fill="#FAFAFA" />
            <path
                d="M153.994 138.501C153.683 133.02 152.947 127.573 151.792 122.208C150.304 114.142 148.723 106.082 147.226 98.0164C146.161 95.7535 143.238 97.2611 141.496 97.8066C139.785 98.6578 135.624 99.0745 135.731 101.505C136.118 104.299 136.705 107.026 137.112 109.814C137.799 112.527 138.216 115.302 138.36 118.098C138.476 121.713 138.398 130.534 133.175 129.938C127.222 127.732 127.63 114.214 126.945 108.714C126.954 107.306 126.753 105.905 126.35 104.557C126.07 104.317 125.742 104.14 125.389 104.036C125.037 103.933 124.666 103.906 124.302 103.957C121.469 104.323 115.248 104.808 115.355 108.627C115.39 111.532 115.576 114.434 115.915 117.319C116.153 121.796 117.005 126.218 118.448 130.459C119.538 133.566 121.601 136.231 124.326 138.054C127.231 139.707 130.616 140.289 133.901 139.7C137.185 139.111 140.163 137.389 142.324 134.829C142.514 135.851 142.72 136.873 142.964 137.884C143.262 139.232 143.428 141.48 145.25 141.384C147.638 141.274 150.013 140.96 152.348 140.446C153.575 140.206 154.027 139.772 154.009 138.495M121.364 133.846C121.366 133.857 121.366 133.868 121.364 133.879V133.846Z"
                fill="#FAFAFA" />
            <path
                d="M42.1573 122.753C41.8954 121.902 39.9131 120.718 39.1809 120.038C37.7999 119.186 34.4872 115.91 32.9305 116.869C32.5198 116.905 32.3353 117.523 32.0971 117.808C30.4494 120.486 28.2709 122.793 25.6979 124.585C16.7688 128.043 12.8549 115.293 13.2151 108.432C13.39 102.916 15.6566 97.6778 19.5488 93.7932C20.9796 92.6043 22.7176 91.8512 24.5586 91.6224C26.3997 91.3935 28.2673 91.6985 29.9423 92.5014V92.4654C30.5673 92.7082 31.2042 91.0087 31.5674 90.5771C32.1353 89.7201 32.6331 88.818 33.0555 87.8796C33.7401 86.5847 35.7343 83.3836 35.3354 82.1007C33.8777 80.4737 31.9989 79.2875 29.9095 78.6749C27.0061 77.3395 23.8094 76.782 20.6292 77.0563C17.9408 77.549 15.3855 78.6058 13.1292 80.1581C10.873 81.7104 8.96634 83.7233 7.53316 86.0662C4.12914 90.9828 1.79698 96.5694 0.68996 102.458C-0.417056 108.348 -0.273853 114.406 1.11016 120.235C1.84639 123.144 3.01224 125.924 4.5687 128.484C5.93242 131.029 7.90345 133.192 10.3042 134.778C12.4012 136.665 14.9077 138.032 17.6232 138.768C20.3386 139.505 23.1876 139.591 25.942 139.02C29.9006 138.009 33.5054 135.918 36.3593 132.977C38.2404 130.696 43.1901 125.855 42.1513 122.756"
                fill="#FAFAFA" />
            <path
                d="M77.4302 121.267C77.0267 108.44 75.7619 95.655 73.6443 83C73.4598 81.6572 70.8019 82.5624 69.8792 82.5864C67.5481 82.8176 65.2641 83.3964 63.102 84.3038H63.0841L63.0603 84.3188C62.7504 84.4661 62.4961 84.7102 62.3352 85.0148C62.1743 85.3195 62.1154 85.6683 62.1674 86.0093C62.9353 96.7247 65.8254 107.221 65.867 117.997C65.8191 118.659 65.7246 119.317 65.5843 119.966C64.0514 121.557 61.6019 121.288 59.5809 121.542C59.0514 121.671 58.4991 121.672 57.969 121.546C57.4388 121.419 56.9459 121.169 56.5302 120.814C55.5259 118.763 54.9457 116.528 54.8247 114.244C54.0449 109.4 54.0479 104.467 53.3841 99.6021C53.1907 96.6467 52.8216 93.6405 52.4555 90.6911C52.3948 89.0393 52.2057 87.3947 51.89 85.7726C51.5924 83.8693 50.2917 83.9741 48.6993 84.1869C46.3812 84.3503 44.0788 84.691 41.812 85.206C40.7316 85.4788 39.1333 85.5238 39.1333 87.0884C39.3655 89.0396 39.7018 90.9849 39.9071 92.9541C40.9727 101.967 41.9906 111.004 43.2169 119.996C43.9788 125.034 44.7527 131.43 49.9524 133.738C55.6075 134.713 61.3132 133.097 66.8552 132.09C69.3006 131.577 71.6924 130.833 73.9985 129.866C74.6622 129.533 75.5581 129.329 75.9331 128.637C76.7185 127.596 77.2616 126.391 77.5223 125.111C77.783 123.83 77.7546 122.507 77.4392 121.24"
                fill="#FAFAFA" />
            <path
                d="M119.65 83.5245C119.477 82.3016 119.817 79.7599 118.567 79.1784C113.772 78.2403 110.135 78.2972 107.697 73.2587C105.646 68.3881 106.128 62.3815 102.206 58.3741C105.709 56.7394 108.538 53.9266 110.206 50.4193C110.979 48.0615 111.025 45.5233 110.337 43.1388C110.304 42.3933 110.127 41.6613 109.816 40.9838C109.149 39.3276 108.097 37.8575 106.746 36.6977C105.396 35.538 103.789 34.7227 102.06 34.3208C95.1784 32.915 87.0171 33.1578 81.2757 37.6598C77.8678 40.1176 79.1327 44.7934 79.1922 48.3901C79.7518 56.5628 80.3372 64.7274 80.9484 72.8841C81.1061 74.5266 80.7102 77.4759 83.0824 77.5629C86.165 77.6186 89.2479 77.4614 92.3091 77.0923C93.4215 77.0178 94.5052 76.7051 95.4879 76.1751C96.8897 75.6716 96.3986 74.134 96.1546 73.022C95.5341 69.8843 94.7462 66.7826 93.7943 63.7303C99.4494 66.308 98.9256 79.3792 105.346 85.2C108.412 88.0378 112.426 89.6097 116.59 89.603C117.507 89.6786 118.427 89.5231 119.269 89.1504C119.358 89.064 119.427 88.9586 119.471 88.842C119.515 88.7253 119.532 88.6003 119.522 88.476C119.689 86.8215 119.448 85.179 119.656 83.5245M94.3211 49.7749C92.5829 50.707 89.6839 52.4455 89.7762 49.0375C89.6452 47.1492 89.547 45.2519 89.5232 43.3636C90.053 41.886 93.1395 42.1138 94.4461 42.1647C95.1676 42.5061 95.7758 43.0501 96.1975 43.7313C96.6193 44.4125 96.8367 45.2019 96.8235 46.0045C96.8103 46.8071 96.5671 47.5888 96.1231 48.2556C95.6792 48.9224 95.0534 49.4458 94.3211 49.7629"
                fill="#FAFAFA" />
            <path
                d="M80.2519 29.7889C75.6772 22.1338 64.8403 27.9695 66.4892 35.9873C66.6829 36.9252 67.0766 37.8095 67.643 38.5791C68.2094 39.3487 68.935 39.9852 69.7696 40.4447C70.6043 40.9041 71.5282 41.1756 72.4772 41.2402C73.4263 41.3048 74.378 41.1611 75.2665 40.819C77.4214 40.0374 79.2201 38.4925 80.3264 36.4729C80.8973 35.4496 81.19 34.2928 81.1748 33.1192C81.1597 31.9456 80.8372 30.7968 80.24 29.7889"
                fill="#FAFAFA" />
            <path
                d="M76.5105 44.7065C76.0819 44.4067 75.2962 44.5716 74.8586 44.4367C73.7694 44.3506 72.6756 44.3376 71.5846 44.3978C69.9356 44.4117 68.2912 44.5732 66.6706 44.8803C65.9682 45.1261 65.9653 45.8664 65.7777 46.4899C65.2509 47.7967 64.8848 49.1575 64.3461 50.4583C61.5453 59.732 59.4083 69.2064 56.6998 78.5101C55.4854 81.7382 59.7952 80.2035 61.4293 80.0087C64.8997 79.3763 68.1797 79.0196 71.665 78.2103H71.6412C73.8764 77.9975 74.7217 63.2538 75.4152 60.4303C75.933 56.9145 76.1742 53.3597 76.5641 49.8229C76.5879 48.6989 77.5284 45.27 76.5105 44.7275"
                fill="#FAFAFA" />
            <path
                d="M67.8881 24.9093C67.7972 24.3457 67.4894 23.8408 67.0315 23.5042C66.5735 23.1676 66.0022 23.0263 65.4415 23.1109C61.8189 22.8087 58.1718 23.0634 54.6253 23.8662C53.0092 24.118 52.4198 24.8014 51.8186 26.5638C49.2974 32.6003 47.1113 38.7733 45.2706 45.0542C43.8628 48.9507 42.4877 52.8472 41.1751 56.7586C40.1215 49.4302 38.8952 42.1108 38.3833 34.7165C38.2553 33.9222 38.5529 32.9391 37.8148 32.3966C36.9219 31.4075 35.5736 32.3636 34.5408 32.6094C33.6745 32.8711 32.8321 33.207 32.0228 33.6135C30.3649 34.15 28.7488 34.7854 27.1177 35.4119C25.8141 36.1222 23.3407 36.344 23.0758 38.0555C23.6002 41.7475 24.3961 45.3953 25.4569 48.9687C27.4779 57.6159 29.228 66.314 31.1745 74.9703C31.3531 76.2051 31.9513 77.464 33.3562 77.482C35.6153 77.527 37.8832 77.6678 40.1453 77.7008C42.3716 77.8117 44.589 77.7548 46.8183 77.8207C47.8154 77.8687 48.8542 77.9436 49.4703 76.9725C50.8117 74.3541 51.9001 71.6119 52.7204 68.7838C56.7653 55.6317 61.9204 42.8691 66.3671 29.8549C66.8533 28.548 67.3305 27.2362 67.7988 25.9194C67.9042 25.6043 67.9407 25.2699 67.9059 24.9393"
                fill="#FAFAFA" />
            <path
                d="M143.536 52.4485C143.547 48.6602 142.831 44.9054 141.425 41.3914C140.242 39.0289 138.587 36.9383 136.564 35.2511C134.54 33.5638 132.191 32.3164 129.666 31.5873C127.223 31.0357 124.694 30.9904 122.234 31.4542C119.773 31.9179 117.432 32.881 115.352 34.2848C114.658 34.7217 114.006 35.2235 113.406 35.7835C112.938 36.272 112.167 36.7186 111.947 37.414C112.054 39.2124 113.587 40.6451 114.382 42.1917C115.486 43.7353 116.498 46.307 118.549 44.2059C119.801 42.9965 121.376 42.1806 123.081 41.858C124.786 41.5354 126.548 41.7201 128.151 42.3895C129.391 42.9861 130.504 43.8222 131.425 44.8503C132.729 46.575 133.514 48.6415 133.684 50.803C131.086 48.9227 127.999 47.8492 124.803 47.715C121.607 47.5808 118.441 48.3917 115.697 50.0477C113.328 51.6432 111.399 53.8189 110.093 56.3705C108.787 58.9221 108.146 61.766 108.23 64.6355C108.257 67.0655 108.911 69.4467 110.127 71.5455C111.344 73.6443 113.081 75.3887 115.169 76.6076C117.256 77.8265 119.623 78.4781 122.036 78.4984C124.449 78.5188 126.826 77.9072 128.933 76.7236C128.636 77.8896 128.299 79.0435 127.907 80.1795C127.71 81.0787 126.823 82.8321 128.032 83.2967C130.639 84.5914 133.425 85.4816 136.297 85.9373C137.124 86.0003 137.488 85.3589 137.77 84.6305C139.672 80.1637 140.973 75.4614 141.64 70.6481C143.066 64.6894 143.702 58.5665 143.53 52.4395M127.457 63.7603C127.19 64.5689 126.726 65.2968 126.106 65.877C125.486 66.4571 124.732 66.8708 123.911 67.0798C123.091 67.2888 122.232 67.2865 121.413 67.0731C120.594 66.8596 119.841 66.4419 119.224 65.8584C118.731 65.1001 118.397 64.2479 118.243 63.3545C118.09 62.461 118.12 61.5454 118.332 60.6641C120.543 54.8194 128.392 58.1464 127.469 63.7543"
                fill="#FAFAFA" />
            <path
                d="M213.016 71.7931C212.173 61.7971 208.376 52.3346 206.843 42.4734C207.736 42.2427 210.73 42.2996 210.664 41.0707C210.751 40.7754 210.74 40.4596 210.632 40.1715C210.417 39.3443 210.301 38.562 210.123 37.6928C209.527 35.3728 209.328 32.8042 208.504 30.5861C208.093 29.5341 206.078 30.2864 205.212 30.2624C201.238 30.757 197.247 31.2905 193.285 31.917C192.291 32.0308 191.303 32.1837 190.309 32.3666C189.789 32.3398 189.274 32.4858 188.844 32.7819C188.414 33.0781 188.092 33.5081 187.928 34.0061C186.955 38.9097 186.44 43.9271 185.586 48.8607C184.505 53.3207 184.047 57.9126 183.335 62.4265C182.106 68.3372 180.877 74.2479 179.945 80.2125C179.8 81.1117 179.428 82.6103 180.338 83.1888C181.076 84.0071 182.389 83.6924 183.392 83.8122C185.151 83.6234 189.753 84.5016 190.833 83.2458C191.652 82.7182 191.559 81.5193 191.726 80.6561C192.285 76.1451 193.116 71.6642 193.759 67.1682C195.65 66.5313 197.595 66.0678 199.569 65.7835C199.744 67.6628 200.137 69.5061 200.414 71.3764C200.685 72.4075 200.503 74.8743 201.661 75.2729C203.11 75.3223 204.56 75.2521 205.998 75.0631C207.898 74.9858 209.789 74.7563 211.653 74.3767C213.09 74.2898 213.192 73.1598 213.001 71.82M197.366 56.315C196.604 56.6147 195.807 56.8155 195.065 57.1572C195.449 53.6024 195.61 50.0207 195.994 46.4599C196.652 49.667 197.184 52.8891 197.798 56.1052C197.651 56.1666 197.508 56.2366 197.369 56.315"
                fill="#FAFAFA" />
            <path
                d="M182.469 55.8564C182.68 53.2437 182.366 50.6151 181.548 48.1267C180.73 45.6382 179.424 43.3407 177.707 41.3705C175.48 38.5884 172.583 36.4266 169.292 35.0908C166.001 33.7551 162.426 33.2898 158.905 33.7393C154.724 33.9701 147.393 34.2759 145.732 38.9457C144.806 44.7687 144.666 50.691 145.315 56.5518C145.338 60.1613 145.637 63.7637 146.208 67.3271C146.282 69.3956 146.625 71.4453 147.229 73.4236C147.817 75.0209 148.887 76.3927 150.289 77.3463C151.691 78.3 153.354 78.7876 155.045 78.7408C156.182 78.7888 157.313 78.6659 158.447 78.6239C162.156 78.8254 165.862 78.1886 169.295 76.7603C172.727 75.332 175.799 73.1483 178.285 70.3694C181.505 66.2689 183 61.0608 182.451 55.8624M169.653 55.6466C169.814 57.3541 169.375 59.0645 168.413 60.4793C167.45 61.8942 166.024 62.9239 164.385 63.3886C163.153 63.8293 160.078 64.4917 159.027 63.6884C158.451 63.3087 157.981 62.7868 157.662 62.1725C157.342 61.5581 157.184 60.8717 157.203 60.1785C156.425 56.3346 156.17 52.4022 156.444 48.4891C156.742 46.4779 159.161 46.274 160.781 46.0163C162.888 45.7428 165.02 46.2966 166.733 47.5629C167.799 48.6003 168.616 49.8677 169.124 51.2696C169.632 52.6715 169.817 54.1712 169.665 55.6556"
                fill="#FAFAFA" />
        </g>
    </g>
    <path
        d="M117.75 23C116.813 23 116.103 22.8733 115.622 22.62C115.166 22.3667 114.862 22.0753 114.71 21.746C114.558 21.4167 114.482 21.1253 114.482 20.872C114.482 20.6187 114.482 20.492 114.482 20.492L114.026 4C114.026 4 114.013 3.87333 113.988 3.62C113.963 3.36667 114.013 3.07533 114.14 2.746C114.267 2.39133 114.533 2.08733 114.938 1.834C115.343 1.55533 115.977 1.416 116.838 1.416C117.978 1.39067 118.839 1.55533 119.422 1.91C120.005 2.23933 120.385 2.58133 120.562 2.936C120.765 3.26533 120.866 3.43 120.866 3.43L125.236 11.372C125.236 11.372 125.337 11.144 125.54 10.688C125.768 10.2067 126.034 9.61133 126.338 8.902C126.667 8.19267 126.997 7.47067 127.326 6.736C127.655 6.00133 127.947 5.368 128.2 4.836C128.453 4.27867 128.618 3.924 128.694 3.772C128.821 3.51867 129.049 3.17667 129.378 2.746C129.707 2.29 130.176 1.872 130.784 1.492C131.417 1.112 132.241 0.909332 133.254 0.883999C134.014 0.858666 134.597 0.947333 135.002 1.15C135.407 1.32733 135.686 1.54267 135.838 1.796C136.015 2.04933 136.117 2.27733 136.142 2.48C136.167 2.68267 136.18 2.784 136.18 2.784C136.18 2.784 136.18 3.11333 136.18 3.772C136.18 4.40533 136.18 5.254 136.18 6.318C136.205 7.382 136.218 8.54733 136.218 9.814C136.218 11.0807 136.218 12.36 136.218 13.652C136.218 14.9187 136.218 16.084 136.218 17.148C136.243 18.212 136.256 19.0733 136.256 19.732C136.256 20.3907 136.256 20.7327 136.256 20.758C136.256 20.7833 136.243 20.91 136.218 21.138C136.218 21.366 136.129 21.632 135.952 21.936C135.775 22.2147 135.458 22.468 135.002 22.696C134.571 22.8987 133.925 23 133.064 23C132.203 23 131.544 22.9113 131.088 22.734C130.657 22.5313 130.353 22.316 130.176 22.088C129.999 21.8347 129.897 21.6193 129.872 21.442C129.847 21.2647 129.834 21.176 129.834 21.176C129.834 21.176 129.834 20.9607 129.834 20.53C129.834 20.074 129.834 19.5167 129.834 18.858C129.859 18.174 129.872 17.5027 129.872 16.844C129.897 16.16 129.91 15.59 129.91 15.134C129.91 14.678 129.91 14.45 129.91 14.45L130.214 9.016L128.238 13.234C128.238 13.234 128.162 13.3733 128.01 13.652C127.883 13.9307 127.63 14.2093 127.25 14.488C126.87 14.7667 126.3 14.9187 125.54 14.944C124.805 14.9693 124.223 14.868 123.792 14.64C123.387 14.3867 123.095 14.146 122.918 13.918C122.766 13.6647 122.69 13.538 122.69 13.538L120.22 9.016C120.22 9.016 120.233 9.32 120.258 9.928C120.309 10.5107 120.359 11.2833 120.41 12.246C120.461 13.1833 120.511 14.184 120.562 15.248C120.613 16.2867 120.651 17.2747 120.676 18.212C120.727 19.124 120.765 19.8587 120.79 20.416C120.815 21.1 120.676 21.632 120.372 22.012C120.068 22.3667 119.713 22.62 119.308 22.772C118.903 22.8987 118.535 22.9747 118.206 23C117.902 23 117.75 23 117.75 23ZM139.172 21.062C139.096 20.2007 139.046 19.124 139.02 17.832C138.995 16.5147 138.982 15.1087 138.982 13.614C138.982 12.1193 138.995 10.6753 139.02 9.282C139.071 7.86333 139.122 6.60933 139.172 5.52C139.223 4.43067 139.274 3.64533 139.324 3.164C139.4 2.556 139.616 2.1 139.97 1.796C140.325 1.46667 140.718 1.23867 141.148 1.112C141.604 0.985332 141.984 0.921999 142.288 0.921999C142.618 0.896666 142.782 0.883999 142.782 0.883999C142.782 0.883999 142.934 0.909332 143.238 0.959998C143.568 0.985331 143.922 1.04866 144.302 1.15C144.682 1.25133 144.948 1.42867 145.1 1.682C145.43 2.18867 145.582 2.68267 145.556 3.164C145.556 3.62 145.531 4.21533 145.48 4.95C145.328 6.85 145.24 8.712 145.214 10.536C145.189 12.36 145.189 14.0193 145.214 15.514C145.24 17.0087 145.265 18.1993 145.29 19.086C145.341 19.9727 145.366 20.416 145.366 20.416C145.366 20.416 145.354 20.5553 145.328 20.834C145.328 21.0873 145.252 21.3787 145.1 21.708C144.948 22.0373 144.657 22.3413 144.226 22.62C143.796 22.8733 143.162 23 142.326 23C141.49 23 140.844 22.9113 140.388 22.734C139.958 22.5313 139.654 22.3033 139.476 22.05C139.324 21.7713 139.236 21.5433 139.21 21.366C139.185 21.1633 139.172 21.062 139.172 21.062ZM153.742 23C152.83 23 152.133 22.8987 151.652 22.696C151.196 22.468 150.867 22.2147 150.664 21.936C150.487 21.632 150.385 21.3787 150.36 21.176C150.36 20.948 150.36 20.834 150.36 20.834C150.36 20.834 150.322 20.454 150.246 19.694C150.17 18.934 150.069 17.9587 149.942 16.768C149.815 15.552 149.676 14.26 149.524 12.892C149.397 11.4987 149.258 10.1687 149.106 8.902C148.979 7.61 148.878 6.52067 148.802 5.634C148.726 4.722 148.675 4.152 148.65 3.924C148.625 3.26533 148.764 2.69533 149.068 2.214C149.397 1.70733 150.183 1.416 151.424 1.34C152.26 1.28933 152.931 1.416 153.438 1.72C153.945 2.024 154.312 2.34067 154.54 2.67C154.768 2.974 154.882 3.126 154.882 3.126L158.454 11.79L159.86 14.412L158.986 7.192C158.986 7.192 158.986 6.774 158.986 5.938C159.011 5.102 159.062 4.10133 159.138 2.936C159.189 2.35333 159.379 1.91 159.708 1.606C160.037 1.302 160.405 1.08666 160.81 0.959998C161.241 0.833332 161.608 0.769999 161.912 0.769999C162.241 0.744666 162.406 0.731999 162.406 0.731999C162.406 0.731999 162.545 0.744666 162.824 0.769999C163.128 0.795332 163.47 0.909332 163.85 1.112C164.23 1.28933 164.559 1.61867 164.838 2.1C165.142 2.556 165.281 3.22733 165.256 4.114C165.231 5.20333 165.269 6.44467 165.37 7.838C165.471 9.206 165.598 10.612 165.75 12.056C165.927 13.5 166.092 14.8553 166.244 16.122C166.421 17.3633 166.573 18.402 166.7 19.238C166.852 20.074 166.941 20.5933 166.966 20.796C167.017 21.1 167.029 21.4673 167.004 21.898C166.979 22.3287 166.776 22.7087 166.396 23.038C166.041 23.3673 165.37 23.5447 164.382 23.57C163.394 23.57 162.659 23.456 162.178 23.228C161.697 23 161.367 22.772 161.19 22.544C161.038 22.2907 160.962 22.164 160.962 22.164L155.262 11.942C155.262 11.942 155.313 12.1953 155.414 12.702C155.515 13.2087 155.629 13.8673 155.756 14.678C155.908 15.4887 156.047 16.3627 156.174 17.3C156.326 18.2373 156.44 19.1367 156.516 19.998C156.592 20.8593 156.491 21.5053 156.212 21.936C155.959 22.3413 155.629 22.62 155.224 22.772C154.844 22.924 154.502 23 154.198 23C153.894 23 153.742 23 153.742 23ZM169.667 20.91L168.945 2.974C168.945 2.974 168.945 2.87267 168.945 2.67C168.971 2.46733 169.059 2.23933 169.211 1.986C169.363 1.70733 169.642 1.46667 170.047 1.264C170.478 1.036 171.099 0.909332 171.909 0.883999C172.999 0.833332 173.771 0.959998 174.227 1.264C174.709 1.54267 175 1.84666 175.101 2.176C175.228 2.48 175.291 2.64467 175.291 2.67C175.291 2.69533 175.304 2.98667 175.329 3.544C175.355 4.10133 175.38 4.78533 175.405 5.596C175.431 6.40667 175.456 7.21733 175.481 8.028C175.507 8.83867 175.532 9.52267 175.557 10.08C175.583 10.612 175.595 10.878 175.595 10.878L179.623 10.65L179.015 3.012C179.015 3.012 179.003 2.92333 178.977 2.746C178.977 2.54333 179.028 2.31533 179.129 2.062C179.256 1.78333 179.509 1.53 179.889 1.302C180.295 1.04867 180.89 0.883999 181.675 0.807998C182.486 0.731999 183.107 0.782666 183.537 0.959998C183.968 1.112 184.285 1.31467 184.487 1.568C184.69 1.82133 184.804 2.04933 184.829 2.252C184.88 2.45467 184.905 2.556 184.905 2.556L186.083 20.302C186.083 20.302 186.096 20.4413 186.121 20.72C186.147 20.9733 186.109 21.29 186.007 21.67C185.906 22.0247 185.653 22.3413 185.247 22.62C184.867 22.8733 184.272 23 183.461 23C182.651 23 182.017 22.886 181.561 22.658C181.105 22.43 180.776 22.1767 180.573 21.898C180.371 21.594 180.244 21.328 180.193 21.1C180.143 20.872 180.117 20.758 180.117 20.758L179.851 13.462L175.709 13.69L176.051 21.138C176.051 21.138 176.039 21.2393 176.013 21.442C175.988 21.6193 175.887 21.8347 175.709 22.088C175.532 22.316 175.228 22.5313 174.797 22.734C174.367 22.9113 173.733 23 172.897 23C172.061 23 171.415 22.8987 170.959 22.696C170.529 22.468 170.225 22.2273 170.047 21.974C169.87 21.6953 169.756 21.4547 169.705 21.252C169.68 21.024 169.667 20.91 169.667 20.91ZM191.671 2.48C191.646 2.48 191.684 2.34067 191.785 2.062C191.912 1.758 192.19 1.46667 192.621 1.188C193.052 0.909332 193.761 0.757332 194.749 0.731999C195.636 0.706666 196.307 0.820666 196.763 1.074C197.219 1.302 197.523 1.53 197.675 1.758C197.852 1.986 197.941 2.1 197.941 2.1C197.941 2.1 198.08 2.42933 198.359 3.088C198.638 3.74667 199.018 4.62067 199.499 5.71C199.98 6.774 200.512 7.96467 201.095 9.282C201.678 10.5993 202.26 11.942 202.843 13.31C203.451 14.6527 204.008 15.9193 204.515 17.11C205.047 18.2753 205.49 19.2633 205.845 20.074C206.2 20.8593 206.428 21.3533 206.529 21.556C206.757 22.0373 206.884 22.3793 206.909 22.582C206.934 22.7847 206.922 22.924 206.871 23C206.846 23.0507 206.833 23.0887 206.833 23.114C206.656 23.4687 206.301 23.7727 205.769 24.026C205.262 24.3047 204.642 24.4567 203.907 24.482C202.894 24.5073 202.159 24.3933 201.703 24.14C201.247 23.912 200.943 23.6713 200.791 23.418C200.664 23.19 200.614 23.0887 200.639 23.114C200.639 23.114 200.5 22.8227 200.221 22.24C199.968 21.6573 199.664 20.9607 199.309 20.15C198.954 19.314 198.625 18.554 198.321 17.87C198.321 17.87 198.144 17.87 197.789 17.87C197.46 17.87 197.067 17.87 196.611 17.87C196.155 17.87 195.75 17.87 195.395 17.87C195.066 17.87 194.901 17.87 194.901 17.87C194.8 18.2247 194.698 18.668 194.597 19.2C194.496 19.7067 194.407 20.1627 194.331 20.568C194.255 20.9733 194.217 21.176 194.217 21.176C194.217 21.176 194.154 21.328 194.027 21.632C193.926 21.936 193.634 22.24 193.153 22.544C192.672 22.848 191.874 23 190.759 23C189.923 23 189.29 22.9113 188.859 22.734C188.454 22.5313 188.175 22.3033 188.023 22.05C187.896 21.7967 187.833 21.5813 187.833 21.404C187.833 21.2013 187.833 21.1 187.833 21.1C187.884 20.8467 187.985 20.3273 188.137 19.542C188.314 18.7313 188.517 17.7687 188.745 16.654C188.998 15.514 189.252 14.3107 189.505 13.044C189.784 11.7773 190.05 10.5233 190.303 9.282C190.556 8.04067 190.784 6.91333 190.987 5.9C191.19 4.86133 191.354 4.038 191.481 3.43C191.608 2.79667 191.671 2.48 191.671 2.48ZM195.661 8.484C195.636 8.58533 195.61 8.788 195.585 9.092L195.433 10.156C195.382 10.7387 195.319 11.3593 195.243 12.018C195.167 12.6767 195.091 13.2973 195.015 13.88C194.964 14.184 194.926 14.374 194.901 14.45H195.395C195.699 14.45 196.028 14.4373 196.383 14.412C196.738 14.3867 197.054 14.374 197.333 14.374C197.232 14.1713 197.143 13.918 197.067 13.614C197.016 13.2847 196.953 12.9807 196.877 12.702C196.725 12.1193 196.548 11.5113 196.345 10.878C196.168 10.2447 196.003 9.64933 195.851 9.092C195.775 8.788 195.712 8.58533 195.661 8.484Z"
        fill="#0BCA9F" />
    <defs>
        <filter id="filter0_n_17_253" x="0" y="23" width="247" height="120" filterUnits="userSpaceOnUse"
            color-interpolation-filters="sRGB">
            <feFlood flood-opacity="0" result="BackgroundImageFix" />
            <feBlend mode="normal" in="SourceGraphic" in2="BackgroundImageFix" result="shape" />
            <feTurbulence type="fractalNoise" baseFrequency="2 2" stitchTiles="stitch" numOctaves="3" result="noise"
                seed="1472" />
            <feColorMatrix in="noise" type="luminanceToAlpha" result="alphaNoise" />
            <feComponentTransfer in="alphaNoise" result="coloredNoise1">
                <feFuncA type="discrete"
                    tableValues="1 1 1 1 1 1 1 1 1 1 1 1 1 1 1 1 1 1 1 1 1 1 1 1 1 1 1 1 1 1 1 1 1 1 1 1 1 1 1 1 1 1 1 1 1 1 1 1 1 1 1 0 0 0 0 0 0 0 0 0 0 0 0 0 0 0 0 0 0 0 0 0 0 0 0 0 0 0 0 0 0 0 0 0 0 0 0 0 0 0 0 0 0 0 0 0 0 0 0 0 " />
            </feComponentTransfer>
            <feComposite operator="in" in2="shape" in="coloredNoise1" result="noise1Clipped" />
            <feFlood flood-color="rgba(0, 0, 0, 0.25)" result="color1Flood" />
            <feComposite operator="in" in2="noise1Clipped" in="color1Flood" result="color1" />
            <feMerge result="effect1_noise_17_253">
                <feMergeNode in="shape" />
                <feMergeNode in="color1" />
            </feMerge>
        </filter>
        <clipPath id="clip0_17_253">
            <rect width="247" height="120" fill="white" transform="translate(0 23)" />
        </clipPath>
    </defs>
</svg>