<svg width="248" height="140" viewBox="0 0 248 140" fill="none" xmlns="http://www.w3.org/2000/svg">
    <path
        d="M80.8443 22.2715C79.907 22.2715 79.1977 22.1448 78.7163 21.8915C78.2603 21.6381 77.9563 21.3468 77.8043 21.0175C77.6523 20.6881 77.5763 20.3968 77.5763 20.1435C77.5763 19.8901 77.5763 19.7635 77.5763 19.7635L77.1203 3.27146C77.1203 3.27146 77.1077 3.14479 77.0823 2.89145C77.057 2.63812 77.1077 2.34679 77.2343 2.01745C77.361 1.66279 77.627 1.35879 78.0323 1.10545C78.4377 0.826788 79.071 0.687455 79.9323 0.687455C81.0723 0.662122 81.9337 0.826789 82.5163 1.18146C83.099 1.51079 83.479 1.85279 83.6563 2.20746C83.859 2.53679 83.9603 2.70145 83.9603 2.70145L88.3303 10.6435C88.3303 10.6435 88.4317 10.4155 88.6343 9.95946C88.8623 9.47812 89.1283 8.88279 89.4323 8.17345C89.7617 7.46412 90.091 6.74212 90.4203 6.00745C90.7497 5.27279 91.041 4.63945 91.2943 4.10745C91.5477 3.55012 91.7123 3.19545 91.7883 3.04345C91.915 2.79012 92.143 2.44812 92.4723 2.01745C92.8017 1.56145 93.2703 1.14345 93.8783 0.763454C94.5117 0.383454 95.335 0.180788 96.3483 0.155455C97.1083 0.130122 97.691 0.218788 98.0963 0.421454C98.5017 0.598788 98.7803 0.814121 98.9323 1.06745C99.1097 1.32079 99.211 1.54879 99.2363 1.75145C99.2617 1.95412 99.2743 2.05546 99.2743 2.05546C99.2743 2.05546 99.2743 2.38479 99.2743 3.04345C99.2743 3.67679 99.2743 4.52545 99.2743 5.58946C99.2997 6.65346 99.3123 7.81879 99.3123 9.08545C99.3123 10.3521 99.3123 11.6315 99.3123 12.9235C99.3123 14.1901 99.3123 15.3555 99.3123 16.4195C99.3377 17.4835 99.3503 18.3448 99.3503 19.0035C99.3503 19.6621 99.3503 20.0041 99.3503 20.0295C99.3503 20.0548 99.3377 20.1815 99.3123 20.4095C99.3123 20.6375 99.2237 20.9035 99.0463 21.2075C98.869 21.4861 98.5523 21.7395 98.0963 21.9675C97.6657 22.1701 97.0197 22.2715 96.1583 22.2715C95.297 22.2715 94.6383 22.1828 94.1823 22.0055C93.7517 21.8028 93.4477 21.5875 93.2703 21.3595C93.093 21.1061 92.9917 20.8908 92.9663 20.7135C92.941 20.5361 92.9283 20.4475 92.9283 20.4475C92.9283 20.4475 92.9283 20.2321 92.9283 19.8015C92.9283 19.3455 92.9283 18.7881 92.9283 18.1295C92.9537 17.4455 92.9663 16.7741 92.9663 16.1155C92.9917 15.4315 93.0043 14.8615 93.0043 14.4055C93.0043 13.9495 93.0043 13.7215 93.0043 13.7215L93.3083 8.28745L91.3323 12.5055C91.3323 12.5055 91.2563 12.6448 91.1043 12.9235C90.9777 13.2021 90.7243 13.4808 90.3443 13.7595C89.9643 14.0381 89.3943 14.1901 88.6343 14.2155C87.8997 14.2408 87.317 14.1395 86.8863 13.9115C86.481 13.6581 86.1897 13.4175 86.0123 13.1895C85.8603 12.9361 85.7843 12.8095 85.7843 12.8095L83.3143 8.28745C83.3143 8.28745 83.327 8.59145 83.3523 9.19946C83.403 9.78212 83.4537 10.5548 83.5043 11.5175C83.555 12.4548 83.6057 13.4555 83.6563 14.5195C83.707 15.5581 83.745 16.5461 83.7703 17.4835C83.821 18.3955 83.859 19.1301 83.8843 19.6875C83.9097 20.3715 83.7703 20.9035 83.4663 21.2835C83.1623 21.6381 82.8077 21.8915 82.4023 22.0435C81.997 22.1701 81.6297 22.2461 81.3003 22.2715C80.9963 22.2715 80.8443 22.2715 80.8443 22.2715Z"
        fill="#0BCA9F" />
    <path
        d="M102.267 20.3335C102.191 19.4721 102.14 18.3955 102.115 17.1035C102.089 15.7861 102.077 14.3801 102.077 12.8855C102.077 11.3908 102.089 9.94679 102.115 8.55345C102.165 7.13479 102.216 5.88079 102.267 4.79146C102.317 3.70212 102.368 2.91679 102.419 2.43545C102.495 1.82746 102.71 1.37145 103.065 1.06745C103.419 0.738121 103.812 0.510121 104.243 0.383454C104.699 0.256788 105.079 0.193454 105.383 0.193454C105.712 0.168121 105.877 0.155455 105.877 0.155455C105.877 0.155455 106.029 0.180788 106.333 0.231454C106.662 0.256787 107.017 0.32012 107.397 0.421454C107.777 0.522787 108.043 0.70012 108.195 0.953454C108.524 1.46012 108.676 1.95412 108.651 2.43545C108.651 2.89146 108.625 3.48679 108.575 4.22145C108.423 6.12146 108.334 7.98346 108.309 9.80746C108.283 11.6315 108.283 13.2908 108.309 14.7855C108.334 16.2801 108.359 17.4708 108.385 18.3575C108.435 19.2441 108.461 19.6875 108.461 19.6875C108.461 19.6875 108.448 19.8268 108.423 20.1055C108.423 20.3588 108.347 20.6501 108.195 20.9795C108.043 21.3088 107.751 21.6128 107.321 21.8915C106.89 22.1448 106.257 22.2715 105.421 22.2715C104.585 22.2715 103.939 22.1828 103.483 22.0055C103.052 21.8028 102.748 21.5748 102.571 21.3215C102.419 21.0428 102.33 20.8148 102.305 20.6375C102.279 20.4348 102.267 20.3335 102.267 20.3335Z"
        fill="#0BCA9F" />
    <path
        d="M116.836 22.2715C115.924 22.2715 115.228 22.1701 114.746 21.9675C114.29 21.7395 113.961 21.4861 113.758 21.2075C113.581 20.9035 113.48 20.6501 113.454 20.4475C113.454 20.2195 113.454 20.1055 113.454 20.1055C113.454 20.1055 113.416 19.7255 113.34 18.9655C113.264 18.2055 113.163 17.2301 113.036 16.0395C112.91 14.8235 112.77 13.5315 112.618 12.1635C112.492 10.7701 112.352 9.44012 112.2 8.17345C112.074 6.88145 111.972 5.79212 111.896 4.90545C111.82 3.99345 111.77 3.42345 111.744 3.19545C111.719 2.53679 111.858 1.96679 112.162 1.48545C112.492 0.978787 113.277 0.687454 114.518 0.611453C115.354 0.560787 116.026 0.687455 116.532 0.991455C117.039 1.29545 117.406 1.61212 117.634 1.94145C117.862 2.24546 117.976 2.39746 117.976 2.39746L121.548 11.0615L122.954 13.6835L122.08 6.46346C122.08 6.46346 122.08 6.04545 122.08 5.20945C122.106 4.37345 122.156 3.37279 122.232 2.20746C122.283 1.62479 122.473 1.18146 122.802 0.877455C123.132 0.573454 123.499 0.35812 123.904 0.231454C124.335 0.104787 124.702 0.041454 125.006 0.041454C125.336 0.016121 125.5 0.00345446 125.5 0.00345446C125.5 0.00345446 125.64 0.016121 125.918 0.041454C126.222 0.066787 126.564 0.180787 126.944 0.383454C127.324 0.560788 127.654 0.890122 127.932 1.37145C128.236 1.82746 128.376 2.49879 128.35 3.38546C128.325 4.47479 128.363 5.71612 128.464 7.10945C128.566 8.47745 128.692 9.88345 128.844 11.3275C129.022 12.7715 129.186 14.1268 129.338 15.3935C129.516 16.6348 129.668 17.6735 129.794 18.5095C129.946 19.3455 130.035 19.8648 130.06 20.0675C130.111 20.3715 130.124 20.7388 130.098 21.1695C130.073 21.6001 129.87 21.9801 129.49 22.3095C129.136 22.6388 128.464 22.8161 127.476 22.8415C126.488 22.8415 125.754 22.7275 125.272 22.4995C124.791 22.2715 124.462 22.0435 124.284 21.8155C124.132 21.5621 124.056 21.4355 124.056 21.4355L118.356 11.2135C118.356 11.2135 118.407 11.4668 118.508 11.9735C118.61 12.4801 118.724 13.1388 118.85 13.9495C119.002 14.7601 119.142 15.6341 119.268 16.5715C119.42 17.5088 119.534 18.4081 119.61 19.2695C119.686 20.1308 119.585 20.7768 119.306 21.2075C119.053 21.6128 118.724 21.8915 118.318 22.0435C117.938 22.1955 117.596 22.2715 117.292 22.2715C116.988 22.2715 116.836 22.2715 116.836 22.2715Z"
        fill="#0BCA9F" />
    <path
        d="M132.762 20.1815L132.04 2.24546C132.04 2.24546 132.04 2.14412 132.04 1.94145C132.065 1.73879 132.154 1.51079 132.306 1.25745C132.458 0.978788 132.736 0.738121 133.142 0.535454C133.572 0.307454 134.193 0.180788 135.004 0.155455C136.093 0.104787 136.866 0.231454 137.322 0.535454C137.803 0.814121 138.094 1.11812 138.196 1.44745C138.322 1.75145 138.386 1.91612 138.386 1.94145C138.386 1.96679 138.398 2.25812 138.424 2.81545C138.449 3.37279 138.474 4.05679 138.5 4.86745C138.525 5.67812 138.55 6.48879 138.576 7.29945C138.601 8.11012 138.626 8.79412 138.652 9.35146C138.677 9.88346 138.69 10.1495 138.69 10.1495L142.718 9.92145L142.11 2.28345C142.11 2.28345 142.097 2.19479 142.072 2.01745C142.072 1.81479 142.122 1.58679 142.224 1.33346C142.35 1.05479 142.604 0.801454 142.984 0.573454C143.389 0.320121 143.984 0.155454 144.77 0.0794535C145.58 0.00345446 146.201 0.0541212 146.632 0.231454C147.062 0.383455 147.379 0.586122 147.582 0.839455C147.784 1.09279 147.898 1.32079 147.924 1.52346C147.974 1.72612 148 1.82745 148 1.82745L149.178 19.5735C149.178 19.5735 149.19 19.7128 149.216 19.9915C149.241 20.2448 149.203 20.5615 149.102 20.9415C149 21.2961 148.747 21.6128 148.342 21.8915C147.962 22.1448 147.366 22.2715 146.556 22.2715C145.745 22.2715 145.112 22.1575 144.656 21.9295C144.2 21.7015 143.87 21.4481 143.668 21.1695C143.465 20.8655 143.338 20.5995 143.288 20.3715C143.237 20.1435 143.212 20.0295 143.212 20.0295L142.946 12.7335L138.804 12.9615L139.146 20.4095C139.146 20.4095 139.133 20.5108 139.108 20.7135C139.082 20.8908 138.981 21.1061 138.804 21.3595C138.626 21.5875 138.322 21.8028 137.892 22.0055C137.461 22.1828 136.828 22.2715 135.992 22.2715C135.156 22.2715 134.51 22.1701 134.054 21.9675C133.623 21.7395 133.319 21.4988 133.142 21.2455C132.964 20.9668 132.85 20.7261 132.8 20.5235C132.774 20.2955 132.762 20.1815 132.762 20.1815Z"
        fill="#0BCA9F" />
    <path
        d="M154.765 1.75145C154.74 1.75145 154.778 1.61212 154.879 1.33346C155.006 1.02945 155.285 0.738122 155.715 0.459455C156.146 0.180788 156.855 0.0287875 157.843 0.00345446C158.73 -0.0218785 159.401 0.0921215 159.857 0.345455C160.313 0.573455 160.617 0.801455 160.769 1.02945C160.947 1.25745 161.035 1.37145 161.035 1.37145C161.035 1.37145 161.175 1.70079 161.453 2.35945C161.732 3.01812 162.112 3.89212 162.593 4.98145C163.075 6.04545 163.607 7.23612 164.189 8.55345C164.772 9.87079 165.355 11.2135 165.937 12.5815C166.545 13.9241 167.103 15.1908 167.609 16.3815C168.141 17.5468 168.585 18.5348 168.939 19.3455C169.294 20.1308 169.522 20.6248 169.623 20.8275C169.851 21.3088 169.978 21.6508 170.003 21.8535C170.029 22.0561 170.016 22.1955 169.965 22.2715C169.94 22.3221 169.927 22.3601 169.927 22.3855C169.75 22.7401 169.395 23.0441 168.863 23.2975C168.357 23.5761 167.736 23.7281 167.001 23.7535C165.988 23.7788 165.253 23.6648 164.797 23.4115C164.341 23.1835 164.037 22.9428 163.885 22.6895C163.759 22.4615 163.708 22.3601 163.733 22.3855C163.733 22.3855 163.594 22.0941 163.315 21.5115C163.062 20.9288 162.758 20.2321 162.403 19.4215C162.049 18.5855 161.719 17.8255 161.415 17.1415C161.415 17.1415 161.238 17.1415 160.883 17.1415C160.554 17.1415 160.161 17.1415 159.705 17.1415C159.249 17.1415 158.844 17.1415 158.489 17.1415C158.16 17.1415 157.995 17.1415 157.995 17.1415C157.894 17.4961 157.793 17.9395 157.691 18.4715C157.59 18.9781 157.501 19.4341 157.425 19.8395C157.349 20.2448 157.311 20.4475 157.311 20.4475C157.311 20.4475 157.248 20.5995 157.121 20.9035C157.02 21.2075 156.729 21.5115 156.247 21.8155C155.766 22.1195 154.968 22.2715 153.853 22.2715C153.017 22.2715 152.384 22.1828 151.953 22.0055C151.548 21.8028 151.269 21.5748 151.117 21.3215C150.991 21.0681 150.927 20.8528 150.927 20.6755C150.927 20.4728 150.927 20.3715 150.927 20.3715C150.978 20.1181 151.079 19.5988 151.231 18.8135C151.409 18.0028 151.611 17.0401 151.839 15.9255C152.093 14.7855 152.346 13.5821 152.599 12.3155C152.878 11.0488 153.144 9.79479 153.397 8.55345C153.651 7.31212 153.879 6.18479 154.081 5.17145C154.284 4.13279 154.449 3.30945 154.575 2.70145C154.702 2.06812 154.765 1.75145 154.765 1.75145ZM158.755 7.75545C158.73 7.85679 158.705 8.05945 158.679 8.36345L158.527 9.42745C158.477 10.0101 158.413 10.6308 158.337 11.2895C158.261 11.9481 158.185 12.5688 158.109 13.1515C158.059 13.4555 158.021 13.6455 157.995 13.7215H158.489C158.793 13.7215 159.123 13.7088 159.477 13.6835C159.832 13.6581 160.149 13.6455 160.427 13.6455C160.326 13.4428 160.237 13.1895 160.161 12.8855C160.111 12.5561 160.047 12.2521 159.971 11.9735C159.819 11.3908 159.642 10.7828 159.439 10.1495C159.262 9.51612 159.097 8.92079 158.945 8.36345C158.869 8.05945 158.806 7.85679 158.755 7.75545Z"
        fill="#0BCA9F" />
    <path
        d="M118.416 134.437C118.411 134.348 118.399 134.26 118.381 134.173C117.297 131.394 115.581 128.91 113.368 126.922C112.934 126.461 112.344 127.222 111.898 127.372C111.288 127.744 110.644 128.056 109.975 128.304C108.253 129.158 106.319 129.481 104.415 129.233C98.5788 128.532 95.9595 121.968 90.2211 121.377C90.4651 110.897 90.7082 100.416 90.9503 89.9358C91.0237 86.7886 91.0971 83.6415 91.1705 80.4943C91.2033 79.0856 91.242 77.6798 91.2688 76.274C91.2612 76.1203 91.1951 75.9755 91.0842 75.8695C90.9734 75.7635 90.8264 75.7044 90.6735 75.7046C88.8371 75.6386 87.0037 75.9144 85.1613 75.9204C83.5326 75.924 81.9184 76.2288 80.3991 76.8196C80.2209 77.0097 80.0908 77.2402 80.0198 77.4917C79.9488 77.7432 79.9391 78.0082 79.9913 78.2643C79.914 80.0057 79.8157 81.7772 79.6669 83.5306C79.2442 89.174 79.1448 94.8373 79.3692 100.492C79.3097 105.459 79.1014 110.419 79.2532 115.389C79.2174 119.516 79.4079 123.625 79.0359 127.744C78.8633 129.119 78.7382 130.235 80.1133 131.023C80.5598 131.682 81.8307 131.454 82.5748 131.553C85.4109 131.743 88.2078 132.323 90.8878 133.277C97.0667 135.8 102.99 141.046 110.053 139.454C113.088 138.813 115.897 137.364 118.187 135.258C118.281 135.144 118.348 135.01 118.385 134.867C118.422 134.723 118.428 134.573 118.401 134.428"
        fill="#FAFAFA" />
    <path
        d="M145.132 84.5826C145.117 85.5207 145.43 86.6807 144.864 87.475C143.819 88.0586 142.699 88.4962 141.537 88.7758C131.733 91.9529 121.943 95.2259 112.157 98.46C112.892 103.627 112.928 108.864 113.669 114.046C113.88 116.444 114.327 118.935 114.321 121.302C114.475 122.172 113.669 122.603 112.96 122.843C111.903 123.277 110.823 123.654 109.725 123.973C108.785 124.339 107.817 124.629 106.85 124.92C105.975 125.28 105.047 125.495 104.103 125.556C103.043 125.364 102.841 124.255 102.755 123.338C102.63 122.22 102.457 121.093 102.424 119.969C101.903 113.95 101.612 107.917 100.876 101.916C95.3344 103.352 95.1767 103.975 94.7868 97.7467C94.5869 96.4946 94.5181 95.2247 94.5815 93.9581C94.5722 93.511 94.7186 93.0746 94.9953 92.7248C95.272 92.375 95.6616 92.1337 96.0964 92.0428C105.484 89.0035 114.949 86.1411 124.372 83.1498L141.95 77.6348C145.43 76.4778 144.885 82.5204 145.144 84.5946"
        fill="#FAFAFA" />
    <path
        d="M182.143 132.297C178.869 123.727 174.065 115.868 170.086 107.635C174.473 104.17 179.158 100.055 180.015 94.1949C180.454 91.4908 180.045 88.7162 178.846 86.2566C177.647 83.797 175.717 81.7746 173.324 80.4703C170.907 79.1802 168.211 78.5081 165.475 78.5131C161.175 78.6427 157.086 80.4226 154.046 83.4886C153.333 84.9912 153.03 86.6577 153.168 88.3172C153.022 91.2885 153.07 94.2662 153.311 97.2312C153.311 101.206 153.609 105.141 153.778 109.113C153.796 116.147 154.076 123.167 154.374 130.19C154.361 131.112 154.419 132.034 154.546 132.947C155.481 134.257 157.43 133.511 158.779 133.472C160.386 133.487 161.987 133.285 163.541 132.872C164.258 132.488 164.1 131.493 164.074 130.807C163.696 126.626 164.011 122.391 164.008 118.2C166.133 122.786 168.452 127.27 170.592 131.856C171.318 133.193 172.797 136.901 174.03 137.482C175.095 137.407 176.122 137.051 177.006 136.448C177.945 136.048 178.847 135.567 179.703 135.009C180.164 134.68 182.03 134.023 181.956 133.397C182.071 133.245 182.149 133.068 182.183 132.879C182.217 132.691 182.205 132.498 182.149 132.315M168.324 95.5827C167.9 96.5067 167.218 97.2863 166.361 97.826C165.504 98.3658 164.51 98.6424 163.499 98.622C163.166 95.7476 163.202 92.8222 163.059 89.9298C162.574 87.6608 165.142 87.6398 166.699 87.8017C167.342 88.1806 167.898 88.6907 168.334 89.2993C168.769 89.9078 169.073 90.6012 169.226 91.3351C169.38 92.069 169.379 92.8272 169.224 93.5608C169.069 94.2943 168.763 94.9871 168.327 95.5947"
        fill="#FAFAFA" />
    <path
        d="M218.684 134.38C216.333 122.361 214.815 110.2 212.6 98.1603C211.856 93.2028 210.413 88.3981 209.523 83.4735C209.203 81.3512 208.76 79.2494 208.196 77.1792C207.44 72.2486 202.54 75.171 199.737 76.346C196.295 77.7315 192.947 79.3404 189.712 81.1626C188.697 81.7381 187.42 82.1488 186.905 83.2967C186.539 84.8812 186.322 86.4969 186.257 88.1223C185.435 93.7902 184.983 99.5121 184.471 105.228C183.819 111.939 182.649 118.605 182.116 125.334C182.131 126.779 181.039 130.046 183.307 130.097C185.626 130.537 188.007 130.435 190.346 130.696C191.071 130.799 191.808 130.77 192.522 130.609C193.4 129.917 193.26 128.343 193.534 127.312C194.442 121.992 195.32 116.666 195.983 111.307C197.856 111.606 199.695 112.086 201.546 112.505C203.433 120.976 204.761 129.59 206.496 138.09C206.838 141.064 210.088 139.226 211.815 138.762C213.083 138.321 214.41 137.991 215.684 137.563C216.542 137.456 217.36 137.137 218.065 136.634C218.958 136.265 218.827 135.159 218.687 134.374M197.609 102.003C197.481 102.025 197.356 102.057 197.234 102.099C197.65 97.9864 198.126 93.8772 198.742 89.7829C199.305 93.8323 199.552 97.9295 200.025 101.988C199.22 101.929 198.413 101.934 197.609 102.003Z"
        fill="#FAFAFA" />
    <path
        d="M246.903 119.459C246.379 116.998 245.629 114.586 244.942 112.164C244.585 110.695 244.385 108.474 242.34 109.283C238.316 111.285 234.405 113.511 230.625 115.949C229.798 107.878 228.152 99.9108 226.896 91.893C226.235 86.9894 225.179 82.1548 224.301 77.2811C224.116 75.1051 223.592 72.983 223.244 70.8309C223.223 70.6751 223.175 70.3064 223 70.2315C222.86 69.7519 222.488 69.2603 221.94 69.3323C220.549 69.5411 219.179 69.8772 217.848 70.3364C216.776 70.798 212.312 71.925 212.047 72.8871C213.238 82.7063 214.976 92.5764 216.348 102.414C217.901 112.206 219.143 122.037 220.533 131.841C220.881 135.788 225.229 132.908 227.209 131.841C228.563 131.092 229.97 130.441 231.328 129.698C235.495 127.51 239.778 125.58 243.829 123.155C244.81 122.693 245.737 122.123 246.594 121.455C247.314 121.09 246.993 120.125 246.912 119.486"
        fill="#FAFAFA" />
    <path
        d="M154.04 135.258C153.729 129.777 152.993 124.33 151.838 118.965C150.35 110.899 148.769 102.839 147.272 94.7734C146.207 92.5104 143.284 94.018 141.542 94.5635C139.831 95.4148 135.67 95.8314 135.777 98.2622C136.164 101.056 136.751 103.783 137.158 106.571C137.845 109.284 138.262 112.059 138.405 114.855C138.522 118.47 138.444 127.291 133.221 126.695C127.268 124.489 127.676 110.971 126.991 105.471C127 104.063 126.799 102.662 126.396 101.314C126.116 101.074 125.788 100.897 125.435 100.793C125.083 100.69 124.712 100.663 124.348 100.714C121.515 101.08 115.294 101.565 115.401 105.384C115.436 108.289 115.622 111.191 115.961 114.076C116.199 118.553 117.051 122.975 118.494 127.216C119.584 130.323 121.647 132.988 124.372 134.811C127.277 136.464 130.662 137.045 133.947 136.457C137.231 135.868 140.209 134.146 142.37 131.586C142.56 132.608 142.766 133.63 143.01 134.64C143.308 135.989 143.474 138.237 145.296 138.141C147.684 138.031 150.059 137.717 152.394 137.203C153.621 136.963 154.073 136.529 154.055 135.252M121.41 130.603C121.412 130.614 121.412 130.625 121.41 130.636V130.603Z"
        fill="#FAFAFA" />
    <path
        d="M42.2033 119.51C41.9414 118.659 39.9591 117.475 39.2269 116.795C37.8459 115.943 34.5332 112.667 32.9765 113.626C32.5658 113.662 32.3813 114.28 32.1432 114.565C30.4954 117.243 28.317 119.549 25.744 121.341C16.8149 124.8 12.9009 112.05 13.2611 105.189C13.4361 99.6733 15.7026 94.4348 19.5948 90.5501C21.0256 89.3612 22.7636 88.6081 24.6046 88.3793C26.4457 88.1504 28.3133 88.4554 29.9883 89.2583V89.2223C30.6133 89.4651 31.2503 87.7656 31.6134 87.334C32.1814 86.477 32.6791 85.5749 33.1016 84.6365C33.7861 83.3416 35.7803 80.1405 35.3815 78.8576C33.9237 77.2306 32.0449 76.0444 29.9555 75.4318C27.0521 74.0964 23.8554 73.5389 20.6752 73.8132C17.9869 74.3059 15.4315 75.3627 13.1753 76.915C10.919 78.4673 9.01236 80.4802 7.57918 82.8231C4.17516 87.7398 1.843 93.3263 0.735981 99.2154C-0.371035 105.105 -0.227832 111.163 1.15618 116.992C1.89241 119.901 3.05826 122.681 4.61472 125.241C5.97844 127.786 7.94947 129.949 10.3502 131.535C12.4472 133.422 14.9537 134.789 17.6692 135.525C20.3847 136.262 23.2336 136.348 25.988 135.776C29.9466 134.766 33.5514 132.675 36.4053 129.734C38.2864 127.453 43.2361 122.612 42.1973 119.513"
        fill="#FAFAFA" />
    <path
        d="M77.4762 118.023C77.0728 105.197 75.8079 92.4118 73.6903 79.7569C73.5058 78.4141 70.8479 79.3193 69.9252 79.3433C67.5941 79.5745 65.3101 80.1533 63.148 81.0607H63.1302L63.1064 81.0757C62.7965 81.2229 62.5421 81.4671 62.3812 81.7717C62.2203 82.0764 62.1614 82.4251 62.2134 82.7662C62.9813 93.4816 65.8714 103.978 65.913 114.753C65.8651 115.416 65.7706 116.074 65.6303 116.723C64.0975 118.314 61.6479 118.044 59.627 118.299C59.0974 118.428 58.5451 118.429 58.015 118.303C57.4849 118.176 56.9919 117.925 56.5762 117.571C55.5719 115.52 54.9917 113.285 54.8707 111.001C54.0909 106.157 54.0939 101.224 53.4302 96.359C53.2367 93.4036 52.8676 90.3974 52.5015 87.448C52.4409 85.7961 52.2518 84.1516 51.936 82.5295C51.6384 80.6262 50.3377 80.731 48.7453 80.9438C46.4272 81.1072 44.1248 81.4479 41.858 81.9629C40.7776 82.2357 39.1793 82.2807 39.1793 83.8453C39.4115 85.7965 39.7478 87.7418 39.9532 89.711C41.0187 98.7239 42.0366 107.761 43.2629 116.753C44.0248 121.791 44.7987 128.187 49.9984 130.495C55.6535 131.469 61.3592 129.854 66.9012 128.847C69.3466 128.334 71.7384 127.589 74.0445 126.623C74.7082 126.29 75.6041 126.086 75.9791 125.394C76.7645 124.353 77.3076 123.148 77.5683 121.868C77.829 120.587 77.8006 119.264 77.4852 117.996"
        fill="#FAFAFA" />
    <path
        d="M119.696 80.2814C119.523 79.0585 119.863 76.5168 118.613 75.9354C113.818 74.9972 110.181 75.0541 107.743 70.0157C105.692 65.145 106.174 59.1385 102.252 55.1311C105.755 53.4963 108.584 50.6836 110.252 47.1762C111.025 44.8185 111.071 42.2802 110.383 39.8958C110.35 39.1502 110.173 38.4182 109.862 37.7407C109.195 36.0846 108.143 34.6144 106.792 33.4547C105.442 32.2949 103.835 31.4796 102.106 31.0777C95.2243 29.672 87.0631 29.9148 81.3217 34.4167C77.9138 36.8745 79.1787 41.5503 79.2382 45.1471C79.7978 53.3197 80.3832 61.4843 80.9943 69.641C81.1521 71.2835 80.7562 74.2329 83.1283 74.3198C86.211 74.3756 89.2938 74.2183 92.3551 73.8492C93.4674 73.7747 94.5511 73.462 95.5339 72.932C96.9357 72.4285 96.4446 70.8909 96.2006 69.7789C95.58 66.6412 94.7922 63.5395 93.8403 60.4872C99.4954 63.0649 98.9716 76.1362 105.392 81.9569C108.458 84.7947 112.472 86.3666 116.636 86.36C117.553 86.4356 118.473 86.28 119.315 85.9074C119.404 85.8209 119.473 85.7156 119.517 85.5989C119.561 85.4823 119.578 85.3573 119.568 85.233C119.735 83.5785 119.494 81.9359 119.702 80.2814M94.3671 46.5318C92.6289 47.464 89.7299 49.2024 89.8222 45.7945C89.6912 43.9062 89.593 42.0089 89.5692 40.1206C90.099 38.6429 93.1855 38.8707 94.4921 38.9217C95.2136 39.263 95.8218 39.807 96.2435 40.4882C96.6653 41.1694 96.8826 41.9588 96.8694 42.7614C96.8562 43.5641 96.613 44.3458 96.1691 45.0125C95.7252 45.6793 95.0994 46.2027 94.3671 46.5198"
        fill="#FAFAFA" />
    <path
        d="M80.2979 26.5458C75.7232 18.8907 64.8862 24.7264 66.5351 32.7442C66.7289 33.6821 67.1226 34.5664 67.689 35.336C68.2554 36.1056 68.9809 36.7421 69.8156 37.2016C70.6503 37.6611 71.5741 37.9325 72.5232 37.9971C73.4723 38.0617 74.424 37.918 75.3125 37.5759C77.4674 36.7943 79.2661 35.2494 80.3723 33.2298C80.9433 32.2066 81.236 31.0497 81.2208 29.8761C81.2056 28.7025 80.8831 27.5537 80.2859 26.5458"
        fill="#FAFAFA" />
    <path
        d="M76.5565 41.4634C76.1279 41.1636 75.3422 41.3285 74.9047 41.1936C73.8154 41.1075 72.7216 41.0945 71.6306 41.1546C69.9817 41.1686 68.3372 41.3301 66.7166 41.6372C66.0142 41.883 66.0113 42.6233 65.8238 43.2468C65.2969 44.5536 64.9308 45.9144 64.3921 47.2152C61.5913 56.4889 59.4543 65.9633 56.7458 75.2669C55.5314 78.495 59.8413 76.9604 61.4753 76.7656C64.9457 76.1332 68.2257 75.7765 71.711 74.9672H71.6872C73.9225 74.7544 74.7677 60.0107 75.4612 57.1872C75.9791 53.6714 76.2202 50.1166 76.6101 46.5798C76.6339 45.4558 77.5744 42.0269 76.5565 41.4844"
        fill="#FAFAFA" />
    <path
        d="M67.934 21.6662C67.8432 21.1026 67.5354 20.5977 67.0774 20.2611C66.6195 19.9244 66.0482 19.7831 65.4874 19.8678C61.8649 19.5656 58.2178 19.8203 54.6713 20.6231C53.0551 20.8749 52.4658 21.5583 51.8646 23.3207C49.3433 29.3572 47.1573 35.5302 45.3166 41.8111C43.9087 45.7076 42.5337 49.604 41.2211 53.5155C40.1674 46.1871 38.9412 38.8677 38.4293 31.4734C38.3013 30.6791 38.5989 29.696 37.8608 29.1535C36.9679 28.1643 35.6196 29.1205 34.5868 29.3663C33.7205 29.628 32.8781 29.9639 32.0688 30.3704C30.4109 30.9069 28.7947 31.5423 27.1637 32.1687C25.86 32.8791 23.3867 33.1009 23.1218 34.8124C23.6461 38.5044 24.442 42.1522 25.5029 45.7255C27.5238 54.3728 29.2739 63.0709 31.2205 71.7271C31.3991 72.962 31.9973 74.2209 33.4022 74.2389C35.6612 74.2838 37.9292 74.4247 40.1913 74.4577C42.4176 74.5686 44.635 74.5116 46.8643 74.5776C47.8614 74.6255 48.9001 74.7005 49.5162 73.7293C50.8577 71.111 51.9461 68.3688 52.7664 65.5407C56.8113 52.3885 61.9664 39.626 66.4131 26.6117C66.8992 25.3049 67.3765 23.9931 67.8447 22.6763C67.9501 22.3612 67.9867 22.0268 67.9519 21.6962"
        fill="#FAFAFA" />
    <path
        d="M143.582 49.2054C143.593 45.4171 142.877 41.6624 141.471 38.1484C140.288 35.7858 138.633 33.6952 136.609 32.008C134.586 30.3208 132.237 29.0734 129.712 28.3442C127.269 27.7926 124.74 27.7473 122.28 28.2111C119.819 28.6748 117.478 29.6379 115.398 31.0418C114.704 31.4787 114.052 31.9804 113.452 32.5404C112.984 33.029 112.213 33.4756 111.993 34.1709C112.1 35.9693 113.633 37.402 114.428 38.9486C115.532 40.4922 116.544 43.0639 118.595 40.9628C119.847 39.7534 121.422 38.9375 123.127 38.6149C124.832 38.2923 126.594 38.4771 128.197 39.1465C129.437 39.743 130.55 40.5791 131.471 41.6073C132.775 43.332 133.56 45.3984 133.73 47.5599C131.132 45.6796 128.045 44.6062 124.849 44.4719C121.653 44.3377 118.487 45.1486 115.743 46.8046C113.374 48.4001 111.445 50.5758 110.139 53.1274C108.833 55.679 108.192 58.523 108.276 61.3924C108.303 63.8224 108.957 66.2036 110.173 68.3024C111.39 70.4012 113.127 72.1456 115.215 73.3645C117.302 74.5834 119.669 75.235 122.082 75.2553C124.495 75.2757 126.872 74.6641 128.979 73.4806C128.682 74.6465 128.345 75.8005 127.952 76.9364C127.756 77.8356 126.869 79.5891 128.077 80.0536C130.685 81.3483 133.471 82.2386 136.343 82.6943C137.17 82.7572 137.534 82.1158 137.816 81.3874C139.718 76.9206 141.019 72.2184 141.686 67.405C143.112 61.4463 143.748 55.3234 143.576 49.1964M127.503 60.5172C127.236 61.3258 126.772 62.0537 126.152 62.6339C125.532 63.214 124.778 63.6277 123.957 63.8367C123.137 64.0458 122.278 64.0435 121.459 63.83C120.64 63.6165 119.887 63.1988 119.27 62.6153C118.777 61.857 118.443 61.0048 118.289 60.1114C118.136 59.218 118.166 58.3023 118.378 57.421C120.589 51.5763 128.438 54.9033 127.515 60.5112"
        fill="#FAFAFA" />
    <path
        d="M213.062 68.55C212.219 58.554 208.422 49.0915 206.889 39.2304C207.782 38.9996 210.776 39.0565 210.71 37.8276C210.797 37.5323 210.786 37.2166 210.678 36.9285C210.463 36.1012 210.347 35.3189 210.169 34.4497C209.573 32.1298 209.374 29.5611 208.55 27.3431C208.139 26.291 206.124 27.0434 205.258 27.0194C201.284 27.5139 197.293 28.0474 193.331 28.6739C192.337 28.7878 191.349 28.9406 190.355 29.1235C189.835 29.0968 189.32 29.2427 188.89 29.5388C188.46 29.835 188.138 30.265 187.974 30.763C187.001 35.6666 186.486 40.6841 185.632 45.6176C184.551 50.0776 184.093 54.6695 183.381 59.1834C182.152 65.0941 180.923 71.0048 179.991 76.9694C179.846 77.8686 179.474 79.3673 180.384 79.9457C181.122 80.764 182.435 80.4493 183.438 80.5692C185.197 80.3803 189.799 81.2586 190.879 80.0027C191.697 79.4752 191.605 78.2762 191.772 77.413C192.331 72.9021 193.162 68.4211 193.805 63.9252C195.696 63.2882 197.641 62.8248 199.615 62.5404C199.79 64.4197 200.183 66.2631 200.46 68.1334C200.731 69.1644 200.549 71.6312 201.707 72.0299C203.156 72.0792 204.606 72.0091 206.044 71.8201C207.944 71.7427 209.835 71.5132 211.699 71.1337C213.136 71.0467 213.237 69.9168 213.047 68.577M197.412 53.0719C196.65 53.3717 195.852 53.5725 195.111 53.9142C195.495 50.3594 195.656 46.7776 196.04 43.2168C196.698 46.4239 197.23 49.646 197.844 52.8621C197.697 52.9235 197.554 52.9936 197.415 53.0719"
        fill="#FAFAFA" />
    <path
        d="M182.515 52.6133C182.726 50.0006 182.412 47.372 181.594 44.8836C180.776 42.3952 179.47 40.0976 177.753 38.1274C175.526 35.3453 172.63 33.1835 169.338 31.8478C166.047 30.512 162.472 30.0467 158.951 30.4962C154.77 30.727 147.439 31.0328 145.778 35.7026C144.852 41.5256 144.712 47.4479 145.361 53.3087C145.384 56.9182 145.683 60.5206 146.254 64.084C146.328 66.1525 146.671 68.2022 147.275 70.1805C147.863 71.7778 148.933 73.1496 150.335 74.1032C151.737 75.0569 153.4 75.5445 155.091 75.4977C156.228 75.5457 157.359 75.4228 158.493 75.3809C162.202 75.5823 165.908 74.9455 169.341 73.5172C172.773 72.0889 175.845 69.9053 178.331 67.1263C181.551 63.0258 183.046 57.8177 182.497 52.6193M169.699 52.4035C169.86 54.111 169.421 55.8214 168.459 57.2363C167.496 58.6511 166.07 59.6808 164.431 60.1456C163.199 60.5862 160.124 61.2486 159.073 60.4453C158.497 60.0656 158.027 59.5437 157.708 58.9294C157.388 58.315 157.23 57.6286 157.249 56.9355C156.471 53.0916 156.216 49.1591 156.49 45.246C156.788 43.2348 159.207 43.031 160.827 42.7732C162.934 42.4997 165.066 43.0535 166.779 44.3198C167.845 45.3572 168.662 46.6246 169.17 48.0265C169.678 49.4284 169.863 50.9281 169.711 52.4125"
        fill="#FAFAFA" />
</svg>