<svg width="27" height="26" viewBox="0 0 27 26" fill="none" xmlns="http://www.w3.org/2000/svg">
  <title>Aceitar</title>
  <g filter="url(#filter0_ii_144_1039)">
    <path
      d="M0.57278 10.1124C0.220532 10.4223 0.0307043 10.8122 0.00330057 11.2819C-0.0241032 11.7517 0.119137 12.1605 0.433021 12.5083L0.524205 12.595L7.63259 20.7191C7.63259 20.7191 8.5447 21.7507 9.39634 21.7507C10.248 21.7507 10.9093 21.6843 11.5917 21.1555C17.738 16.3929 19.2103 15.2087 25.8841 10.0374C26.2519 9.74732 26.4652 9.36579 26.5237 8.89283C26.5823 8.41987 26.4687 7.99736 26.1829 7.62532L24.2966 4.9053C24.0107 4.53325 23.6344 4.31796 23.1674 4.25943C22.7005 4.20089 22.1906 4.40189 21.8227 4.69199L10.3325 13.6098L5.58818 8.1877C5.27429 7.83991 4.87945 7.65249 4.40364 7.62543C3.92783 7.59838 3.5138 7.7398 3.16155 8.04971L0.57278 10.1124Z"
      fill="url(#paint0_linear_144_1039)" />
  </g>
  <defs>
    <filter id="filter0_ii_144_1039" x="-2" y="-2" width="30.5387" height="30" filterUnits="userSpaceOnUse"
      color-interpolation-filters="sRGB">
      <feFlood flood-opacity="0" result="BackgroundImageFix" />
      <feBlend mode="normal" in="SourceGraphic" in2="BackgroundImageFix" result="shape" />
      <feColorMatrix in="SourceAlpha" type="matrix" values="0 0 0 0 0 0 0 0 0 0 0 0 0 0 0 0 0 0 127 0"
        result="hardAlpha" />
      <feOffset dx="-2" dy="-2" />
      <feGaussianBlur stdDeviation="1.5" />
      <feComposite in2="hardAlpha" operator="arithmetic" k2="-1" k3="1" />
      <feColorMatrix type="matrix" values="0 0 0 0 0 0 0 0 0 0 0 0 0 0 0 0 0 0 0.2 0" />
      <feBlend mode="normal" in2="shape" result="effect1_innerShadow_144_1039" />
      <feColorMatrix in="SourceAlpha" type="matrix" values="0 0 0 0 0 0 0 0 0 0 0 0 0 0 0 0 0 0 127 0"
        result="hardAlpha" />
      <feOffset dx="2" dy="2" />
      <feGaussianBlur stdDeviation="1.5" />
      <feComposite in2="hardAlpha" operator="arithmetic" k2="-1" k3="1" />
      <feColorMatrix type="matrix" values="0 0 0 0 1 0 0 0 0 1 0 0 0 0 1 0 0 0 0.25 0" />
      <feBlend mode="normal" in2="effect1_innerShadow_144_1039" result="effect2_innerShadow_144_1039" />
    </filter>
    <linearGradient id="paint0_linear_144_1039" x1="-9.10001e-09" y1="7.74956" x2="28.4951" y2="8.49777"
      gradientUnits="userSpaceOnUse">
      <stop stop-color="#4C35C2" />
      <stop offset="1" stop-color="#963CB6" />
    </linearGradient>
  </defs>
</svg>