<svg width="24" height="24" viewBox="0 0 24 24" fill="none" xmlns="http://www.w3.org/2000/svg">
  <title>Fechar</title>
  <g filter="url(#filter0_ii_137_1043)">
    <path
      d="M23.8831 19.4143C23.8831 19.928 23.7033 20.3646 23.3438 20.7242L20.7242 23.3438C20.3646 23.7033 19.928 23.8831 19.4143 23.8831C18.9007 23.8831 18.4641 23.7033 18.1045 23.3438L12.4416 17.6808L6.77856 23.3438C6.41901 23.7033 5.9824 23.8831 5.46875 23.8831C4.9551 23.8831 4.5185 23.7033 4.15895 23.3438L1.53933 20.7242C1.17978 20.3646 1 19.928 1 19.4143C1 18.9007 1.17978 18.4641 1.53933 18.1045L7.20232 12.4416L1.53933 6.77856C1.17978 6.41901 1 5.9824 1 5.46875C1 4.9551 1.17978 4.5185 1.53933 4.15895L4.15895 1.53933C4.5185 1.17978 4.9551 1 5.46875 1C5.9824 1 6.41901 1.17978 6.77856 1.53933L12.4416 7.20232L18.1045 1.53933C18.4641 1.17978 18.9007 1 19.4143 1C19.928 1 20.3646 1.17978 20.7242 1.53933L23.3438 4.15895C23.7033 4.5185 23.8831 4.9551 23.8831 5.46875C23.8831 5.9824 23.7033 6.41901 23.3438 6.77856L17.6808 12.4416L23.3438 18.1045C23.7033 18.4641 23.8831 18.9007 23.8831 19.4143Z"
      fill="url(#paint0_linear_137_1043)" />
  </g>
  <defs>
    <filter id="filter0_ii_137_1043" x="-2" y="-2" width="28" height="28" filterUnits="userSpaceOnUse"
      color-interpolation-filters="sRGB">
      <feFlood flood-opacity="0" result="BackgroundImageFix" />
      <feBlend mode="normal" in="SourceGraphic" in2="BackgroundImageFix" result="shape" />
      <feColorMatrix in="SourceAlpha" type="matrix" values="0 0 0 0 0 0 0 0 0 0 0 0 0 0 0 0 0 0 127 0"
        result="hardAlpha" />
      <feOffset dx="-2" dy="-2" />
      <feGaussianBlur stdDeviation="1.5" />
      <feComposite in2="hardAlpha" operator="arithmetic" k2="-1" k3="1" />
      <feColorMatrix type="matrix" values="0 0 0 0 0 0 0 0 0 0 0 0 0 0 0 0 0 0 0.2 0" />
      <feBlend mode="normal" in2="shape" result="effect1_innerShadow_137_1043" />
      <feColorMatrix in="SourceAlpha" type="matrix" values="0 0 0 0 0 0 0 0 0 0 0 0 0 0 0 0 0 0 127 0"
        result="hardAlpha" />
      <feOffset dx="2" dy="2" />
      <feGaussianBlur stdDeviation="1.5" />
      <feComposite in2="hardAlpha" operator="arithmetic" k2="-1" k3="1" />
      <feColorMatrix type="matrix" values="0 0 0 0 1 0 0 0 0 1 0 0 0 0 1 0 0 0 0.25 0" />
      <feBlend mode="normal" in2="effect1_innerShadow_137_1043" result="effect2_innerShadow_137_1043" />
    </filter>
    <linearGradient id="paint0_linear_137_1043" x1="1" y1="5.57662" x2="25.5796" y2="6.00224"
      gradientUnits="userSpaceOnUse">
      <stop stop-color="#4C35C2" />
      <stop offset="1" stop-color="#963CB6" />
    </linearGradient>
  </defs>
</svg>