<svg width="24" height="24" viewBox="0 0 24 24" fill="none" xmlns="http://www.w3.org/2000/svg">
    <title>map-pin</title>
    <g filter="url(#filter0_ii_113_1005)">
        <path
            d="M12 3C13.9891 3 15.8972 3.78977 17.3037 5.19629C18.7102 6.60281 19.5 8.51088 19.5 10.5C19.5 17.642 12 21.75 12 21.75C12 21.75 4.5 17.642 4.5 10.5C4.5 8.51088 5.28977 6.60281 6.69629 5.19629C8.10281 3.78977 10.0109 3 12 3ZM12 7.5C11.2044 7.5 10.4415 7.8163 9.87891 8.37891C9.3163 8.94152 9 9.70435 9 10.5C9 11.2956 9.3163 12.0585 9.87891 12.6211C10.4415 13.1837 11.2044 13.5 12 13.5C12.7956 13.5 13.5585 13.1837 14.1211 12.6211C14.6837 12.0585 15 11.2956 15 10.5C15 9.70435 14.6837 8.94152 14.1211 8.37891C13.5585 7.8163 12.7956 7.5 12 7.5Z"
            fill="url(#paint0_linear_113_1005)" />
    </g>
    <defs>
        <filter id="filter0_ii_113_1005" x="2.5" y="1" width="19" height="22.75" filterUnits="userSpaceOnUse"
            color-interpolation-filters="sRGB">
            <feFlood flood-opacity="0" result="BackgroundImageFix" />
            <feBlend mode="normal" in="SourceGraphic" in2="BackgroundImageFix" result="shape" />
            <feColorMatrix in="SourceAlpha" type="matrix" values="0 0 0 0 0 0 0 0 0 0 0 0 0 0 0 0 0 0 127 0"
                result="hardAlpha" />
            <feOffset dx="-2" dy="-2" />
            <feGaussianBlur stdDeviation="1.5" />
            <feComposite in2="hardAlpha" operator="arithmetic" k2="-1" k3="1" />
            <feColorMatrix type="matrix" values="0 0 0 0 0 0 0 0 0 0 0 0 0 0 0 0 0 0 0.2 0" />
            <feBlend mode="normal" in2="shape" result="effect1_innerShadow_113_1005" />
            <feColorMatrix in="SourceAlpha" type="matrix" values="0 0 0 0 0 0 0 0 0 0 0 0 0 0 0 0 0 0 127 0"
                result="hardAlpha" />
            <feOffset dx="2" dy="2" />
            <feGaussianBlur stdDeviation="1.5" />
            <feComposite in2="hardAlpha" operator="arithmetic" k2="-1" k3="1" />
            <feColorMatrix type="matrix" values="0 0 0 0 1 0 0 0 0 1 0 0 0 0 1 0 0 0 0.25 0" />
            <feBlend mode="normal" in2="effect1_innerShadow_113_1005" result="effect2_innerShadow_113_1005" />
        </filter>
        <linearGradient id="paint0_linear_113_1005" x1="4.5" y1="6.75" x2="20.6138" y2="6.97322"
            gradientUnits="userSpaceOnUse">
            <stop stop-color="#4C35C2" />
            <stop offset="1" stop-color="#963CB6" />
        </linearGradient>
    </defs>
</svg>