<svg width="24" height="24" viewBox="0 0 24 24" fill="none" xmlns="http://www.w3.org/2000/svg">
    <title>Minus Icon</title>
    <g filter="url(#filter0_ii_118_600)">
        <path
            d="M20.4142 9.58579C20.0391 9.21071 19.5304 9 19 9H5C4.46957 9 3.96086 9.21071 3.58579 9.58579C3.21071 9.96086 3 10.4696 3 11V13C3 13.5304 3.21071 14.0391 3.58579 14.4142C3.96086 14.7893 4.46957 15 5 15H19C19.5304 15 20.0391 14.7893 20.4142 14.4142C20.7893 14.0391 21 13.5304 21 13V11C21 10.4696 20.7893 9.96086 20.4142 9.58579Z"
            fill="url(#paint0_linear_118_600)" />
    </g>
    <defs>
        <filter id="filter0_ii_118_600" x="-2" y="-2" width="28" height="28" filterUnits="userSpaceOnUse"
            color-interpolation-filters="sRGB">
            <feFlood flood-opacity="0" result="BackgroundImageFix" />
            <feBlend mode="normal" in="SourceGraphic" in2="BackgroundImageFix" result="shape" />
            <feColorMatrix in="SourceAlpha" type="matrix" values="0 0 0 0 0 0 0 0 0 0 0 0 0 0 0 0 0 0 127 0"
                result="hardAlpha" />
            <feOffset dx="-2" dy="-2" />
            <feGaussianBlur stdDeviation="1.5" />
            <feComposite in2="hardAlpha" operator="arithmetic" k2="-1" k3="1" />
            <feColorMatrix type="matrix" values="0 0 0 0 0 0 0 0 0 0 0 0 0 0 0 0 0 0 0.2 0" />
            <feBlend mode="normal" in2="shape" result="effect1_innerShadow_118_600" />
            <feColorMatrix in="SourceAlpha" type="matrix" values="0 0 0 0 0 0 0 0 0 0 0 0 0 0 0 0 0 0 127 0"
                result="hardAlpha" />
            <feOffset dx="2" dy="2" />
            <feGaussianBlur stdDeviation="1.5" />
            <feComposite in2="hardAlpha" operator="arithmetic" k2="-1" k3="1" />
            <feColorMatrix type="matrix" values="0 0 0 0 1 0 0 0 0 1 0 0 0 0 1 0 0 0 0.25 0" />
            <feBlend mode="normal" in2="effect1_innerShadow_118_600" result="effect2_innerShadow_118_600" />
        </filter>
        <linearGradient id="paint0_linear_118_600" x1="3" y1="10.2" x2="22.2882" y2="11.202"
            gradientUnits="userSpaceOnUse">
            <stop stop-color="#4C35C2" />
            <stop offset="1" stop-color="#963CB6" />
        </linearGradient>
    </defs>
</svg>