<svg width="24" height="24" viewBox="0 0 24 24" fill="none" xmlns="http://www.w3.org/2000/svg">
    <title>Plus Icon</title>
    <g filter="url(#filter0_ii_113_1033)">
        <path fill-rule="evenodd" clip-rule="evenodd"
            d="M9 5C9 4.46957 9.21071 3.96086 9.58579 3.58579C9.96086 3.21071 10.4696 3 11 3H13C13.5304 3 14.0391 3.21071 14.4142 3.58579C14.7893 3.96086 15 4.46957 15 5V9H19C19.5304 9 20.0391 9.21071 20.4142 9.58579C20.7893 9.96086 21 10.4696 21 11V13C21 13.5304 20.7893 14.0391 20.4142 14.4142C20.0391 14.7893 19.5304 15 19 15H15V19C15 19.5304 14.7893 20.0391 14.4142 20.4142C14.0391 20.7893 13.5304 21 13 21H11C10.4696 21 9.96086 20.7893 9.58579 20.4142C9.21071 20.0391 9 19.5304 9 19V15H5C4.46957 15 3.96086 14.7893 3.58579 14.4142C3.21071 14.0391 3 13.5304 3 13V11C3 10.4696 3.21071 9.96086 3.58579 9.58579C3.96086 9.21071 4.46957 9 5 9H9V5Z"
            fill="url(#paint0_linear_113_1033)" />
    </g>
    <defs>
        <filter id="filter0_ii_113_1033" x="-2" y="-2" width="28" height="28" filterUnits="userSpaceOnUse"
            color-interpolation-filters="sRGB">
            <feFlood flood-opacity="0" result="BackgroundImageFix" />
            <feBlend mode="normal" in="SourceGraphic" in2="BackgroundImageFix" result="shape" />
            <feColorMatrix in="SourceAlpha" type="matrix" values="0 0 0 0 0 0 0 0 0 0 0 0 0 0 0 0 0 0 127 0"
                result="hardAlpha" />
            <feOffset dx="-2" dy="-2" />
            <feGaussianBlur stdDeviation="1.5" />
            <feComposite in2="hardAlpha" operator="arithmetic" k2="-1" k3="1" />
            <feColorMatrix type="matrix" values="0 0 0 0 0 0 0 0 0 0 0 0 0 0 0 0 0 0 0.2 0" />
            <feBlend mode="normal" in2="shape" result="effect1_innerShadow_113_1033" />
            <feColorMatrix in="SourceAlpha" type="matrix" values="0 0 0 0 0 0 0 0 0 0 0 0 0 0 0 0 0 0 127 0"
                result="hardAlpha" />
            <feOffset dx="2" dy="2" />
            <feGaussianBlur stdDeviation="1.5" />
            <feComposite in2="hardAlpha" operator="arithmetic" k2="-1" k3="1" />
            <feColorMatrix type="matrix" values="0 0 0 0 1 0 0 0 0 1 0 0 0 0 1 0 0 0 0.25 0" />
            <feBlend mode="normal" in2="effect1_innerShadow_113_1033" result="effect2_innerShadow_113_1033" />
        </filter>
        <linearGradient id="paint0_linear_113_1033" x1="3" y1="6.6" x2="22.3345" y2="6.9348"
            gradientUnits="userSpaceOnUse">
            <stop stop-color="#4C35C2" />
            <stop offset="1" stop-color="#963CB6" />
        </linearGradient>
    </defs>
</svg>