<svg width="20" height="20" viewBox="0 0 20 20" fill="none" xmlns="http://www.w3.org/2000/svg">
    <title>start-outline</title>
    <path
        d="M10 0.5C10.1407 0.5 10.2785 0.538894 10.3975 0.612305C10.5165 0.685776 10.6124 0.791293 10.6738 0.915039L13.0859 5.7666L13.2031 6.00195L13.4619 6.03906L18.8584 6.81738C18.9976 6.83746 19.1285 6.8959 19.2354 6.98535C19.342 7.07474 19.4211 7.19152 19.4639 7.32227C19.5066 7.45307 19.5117 7.59312 19.4785 7.72656C19.4453 7.86013 19.3744 7.9824 19.2744 8.0791L15.3701 11.8574L15.1797 12.041L15.2246 12.3018L16.1475 17.6348C16.1708 17.7702 16.1548 17.9096 16.1025 18.0371C16.0502 18.1647 15.9628 18.2758 15.8496 18.3574C15.7364 18.439 15.6022 18.488 15.4619 18.498C15.3217 18.5081 15.1817 18.4788 15.0576 18.4141L10.2324 15.8955L10.001 15.7754L9.76953 15.8955L4.94238 18.4141C4.81853 18.4783 4.67892 18.5071 4.53906 18.4971C4.39887 18.4869 4.26448 18.4381 4.15137 18.3564C4.03841 18.2749 3.95073 18.1644 3.89844 18.0371C3.8592 17.9414 3.84063 17.8387 3.84375 17.7363L3.85449 17.6348L4.77539 12.2998L4.82031 12.04L4.62988 11.8555L0.725586 8.0791C0.625557 7.98241 0.554746 7.86013 0.521484 7.72656C0.488309 7.59312 0.493351 7.45308 0.536133 7.32227C0.57891 7.19152 0.658025 7.07474 0.764648 6.98535C0.871532 6.8959 1.00241 6.83746 1.1416 6.81738L6.53809 6.03906L6.79688 6.00195L6.91406 5.7666L9.32617 0.915039C9.38761 0.791294 9.48354 0.685776 9.60254 0.612305C9.72153 0.538894 9.85929 0.5 10 0.5Z"
        stroke="url(#paint0_linear_26_317)" />
    <defs>
        <linearGradient id="paint0_linear_26_317" x1="-6.85792e-09" y1="3.8" x2="21.482" y2="4.19156"
            gradientUnits="userSpaceOnUse">
            <stop stop-color="#4C35C2" />
            <stop offset="1" stop-color="#963CB6" />
        </linearGradient>
    </defs>
</svg>